{
	"patcher" : 	{
		"fileversion" : 1,
		"appversion" : 		{
			"major" : 7,
			"minor" : 0,
			"revision" : 0,
			"architecture" : "x86",
			"modernui" : 1
		}
,
		"rect" : [ 376.0, 78.0, 1426.0, 964.0 ],
		"bglocked" : 0,
		"openinpresentation" : 1,
		"default_fontsize" : 12.0,
		"default_fontface" : 0,
		"default_fontname" : "Arial",
		"gridonopen" : 1,
		"gridsize" : [ 15.0, 15.0 ],
		"gridsnaponopen" : 1,
		"objectsnaponopen" : 1,
		"statusbarvisible" : 2,
		"toolbarvisible" : 1,
		"lefttoolbarpinned" : 0,
		"toptoolbarpinned" : 0,
		"righttoolbarpinned" : 0,
		"bottomtoolbarpinned" : 0,
		"toolbars_unpinned_last_save" : 0,
		"tallnewobj" : 0,
		"boxanimatetime" : 200,
		"enablehscroll" : 1,
		"enablevscroll" : 1,
		"devicewidth" : 0.0,
		"description" : "",
		"digest" : "",
		"tags" : "",
		"style" : "",
		"subpatcher_template" : "",
		"boxes" : [ 			{
				"box" : 				{
					"id" : "obj-309",
					"maxclass" : "newobj",
					"numinlets" : 0,
					"numoutlets" : 1,
					"outlettype" : [ "" ],
					"patching_rect" : [ 411.906433, 79.715332, 51.0, 22.0 ],
					"style" : "",
					"text" : "r output"
				}

			}
, 			{
				"box" : 				{
					"id" : "obj-308",
					"maxclass" : "newobj",
					"numinlets" : 1,
					"numoutlets" : 0,
					"patching_rect" : [ 995.0, 417.996094, 53.0, 22.0 ],
					"style" : "",
					"text" : "s output"
				}

			}
, 			{
				"box" : 				{
					"id" : "obj-307",
					"maxclass" : "newobj",
					"numinlets" : 1,
					"numoutlets" : 10,
					"outlettype" : [ "", "", "", "", "", "", "", "", "", "" ],
					"patcher" : 					{
						"fileversion" : 1,
						"appversion" : 						{
							"major" : 7,
							"minor" : 0,
							"revision" : 0,
							"architecture" : "x86",
							"modernui" : 1
						}
,
						"rect" : [ 59.0, 103.0, 700.0, 870.0 ],
						"bglocked" : 0,
						"openinpresentation" : 0,
						"default_fontsize" : 12.0,
						"default_fontface" : 0,
						"default_fontname" : "Arial",
						"gridonopen" : 1,
						"gridsize" : [ 15.0, 15.0 ],
						"gridsnaponopen" : 1,
						"objectsnaponopen" : 1,
						"statusbarvisible" : 2,
						"toolbarvisible" : 1,
						"lefttoolbarpinned" : 0,
						"toptoolbarpinned" : 0,
						"righttoolbarpinned" : 0,
						"bottomtoolbarpinned" : 0,
						"toolbars_unpinned_last_save" : 0,
						"tallnewobj" : 0,
						"boxanimatetime" : 200,
						"enablehscroll" : 1,
						"enablevscroll" : 1,
						"devicewidth" : 0.0,
						"description" : "",
						"digest" : "",
						"tags" : "",
						"style" : "",
						"subpatcher_template" : "",
						"boxes" : [ 							{
								"box" : 								{
									"id" : "obj-1",
									"maxclass" : "newobj",
									"numinlets" : 1,
									"numoutlets" : 1,
									"outlettype" : [ "bang" ],
									"patching_rect" : [ 157.5, 496.503906, 60.0, 22.0 ],
									"style" : "",
									"text" : "loadbang"
								}

							}
, 							{
								"box" : 								{
									"id" : "obj-280",
									"maxclass" : "button",
									"numinlets" : 1,
									"numoutlets" : 1,
									"outlettype" : [ "bang" ],
									"patching_rect" : [ 103.5, 523.003906, 24.0, 24.0 ],
									"style" : ""
								}

							}
, 							{
								"box" : 								{
									"id" : "obj-266",
									"maxclass" : "newobj",
									"numinlets" : 2,
									"numoutlets" : 1,
									"outlettype" : [ "bang" ],
									"patching_rect" : [ 103.5, 373.503906, 63.0, 22.0 ],
									"style" : "",
									"text" : "delay 950"
								}

							}
, 							{
								"box" : 								{
									"id" : "obj-159",
									"maxclass" : "newobj",
									"numinlets" : 2,
									"numoutlets" : 1,
									"outlettype" : [ "int" ],
									"patching_rect" : [ 832.950012, 654.33728, 59.0, 22.0 ],
									"style" : "",
									"text" : "&&"
								}

							}
, 							{
								"box" : 								{
									"id" : "obj-160",
									"maxclass" : "newobj",
									"numinlets" : 2,
									"numoutlets" : 1,
									"outlettype" : [ "int" ],
									"patching_rect" : [ 872.950012, 628.33728, 41.0, 22.0 ],
									"style" : "",
									"text" : "< 120"
								}

							}
, 							{
								"box" : 								{
									"id" : "obj-161",
									"maxclass" : "newobj",
									"numinlets" : 2,
									"numoutlets" : 1,
									"outlettype" : [ "int" ],
									"patching_rect" : [ 832.950012, 628.33728, 41.0, 22.0 ],
									"style" : "",
									"text" : "> 105"
								}

							}
, 							{
								"box" : 								{
									"id" : "obj-143",
									"maxclass" : "newobj",
									"numinlets" : 2,
									"numoutlets" : 2,
									"outlettype" : [ "", "" ],
									"patching_rect" : [ 832.950012, 681.203979, 48.0, 22.0 ],
									"style" : "",
									"text" : "route 1"
								}

							}
, 							{
								"box" : 								{
									"id" : "obj-142",
									"maxclass" : "newobj",
									"numinlets" : 2,
									"numoutlets" : 2,
									"outlettype" : [ "", "" ],
									"patching_rect" : [ 742.75, 681.203979, 48.0, 22.0 ],
									"style" : "",
									"text" : "route 1"
								}

							}
, 							{
								"box" : 								{
									"id" : "obj-141",
									"maxclass" : "newobj",
									"numinlets" : 2,
									"numoutlets" : 2,
									"outlettype" : [ "", "" ],
									"patching_rect" : [ 659.75, 681.203979, 48.0, 22.0 ],
									"style" : "",
									"text" : "route 1"
								}

							}
, 							{
								"box" : 								{
									"id" : "obj-139",
									"maxclass" : "newobj",
									"numinlets" : 2,
									"numoutlets" : 2,
									"outlettype" : [ "", "" ],
									"patching_rect" : [ 581.75, 681.203979, 48.0, 22.0 ],
									"style" : "",
									"text" : "route 1"
								}

							}
, 							{
								"box" : 								{
									"id" : "obj-138",
									"maxclass" : "newobj",
									"numinlets" : 2,
									"numoutlets" : 2,
									"outlettype" : [ "", "" ],
									"patching_rect" : [ 502.949951, 681.203979, 48.0, 22.0 ],
									"style" : "",
									"text" : "route 1"
								}

							}
, 							{
								"box" : 								{
									"id" : "obj-137",
									"maxclass" : "newobj",
									"numinlets" : 2,
									"numoutlets" : 2,
									"outlettype" : [ "", "" ],
									"patching_rect" : [ 425.75, 681.203979, 48.0, 22.0 ],
									"style" : "",
									"text" : "route 1"
								}

							}
, 							{
								"box" : 								{
									"id" : "obj-136",
									"maxclass" : "newobj",
									"numinlets" : 2,
									"numoutlets" : 2,
									"outlettype" : [ "", "" ],
									"patching_rect" : [ 347.75, 681.203979, 48.0, 22.0 ],
									"style" : "",
									"text" : "route 1"
								}

							}
, 							{
								"box" : 								{
									"id" : "obj-135",
									"maxclass" : "newobj",
									"numinlets" : 2,
									"numoutlets" : 2,
									"outlettype" : [ "", "" ],
									"patching_rect" : [ 269.75, 681.203979, 48.0, 22.0 ],
									"style" : "",
									"text" : "route 1"
								}

							}
, 							{
								"box" : 								{
									"id" : "obj-134",
									"maxclass" : "newobj",
									"numinlets" : 2,
									"numoutlets" : 2,
									"outlettype" : [ "", "" ],
									"patching_rect" : [ 191.75, 681.203979, 48.0, 22.0 ],
									"style" : "",
									"text" : "route 1"
								}

							}
, 							{
								"box" : 								{
									"id" : "obj-128",
									"maxclass" : "newobj",
									"numinlets" : 2,
									"numoutlets" : 2,
									"outlettype" : [ "", "" ],
									"patching_rect" : [ 113.75, 681.203979, 48.0, 22.0 ],
									"style" : "",
									"text" : "route 1"
								}

							}
, 							{
								"box" : 								{
									"id" : "obj-96",
									"maxclass" : "newobj",
									"numinlets" : 2,
									"numoutlets" : 1,
									"outlettype" : [ "int" ],
									"patching_rect" : [ 742.75, 654.33728, 59.0, 22.0 ],
									"style" : "",
									"text" : "&&"
								}

							}
, 							{
								"box" : 								{
									"id" : "obj-98",
									"maxclass" : "newobj",
									"numinlets" : 2,
									"numoutlets" : 1,
									"outlettype" : [ "int" ],
									"patching_rect" : [ 782.75, 628.33728, 41.0, 22.0 ],
									"style" : "",
									"text" : "< 105"
								}

							}
, 							{
								"box" : 								{
									"id" : "obj-101",
									"maxclass" : "newobj",
									"numinlets" : 2,
									"numoutlets" : 1,
									"outlettype" : [ "int" ],
									"patching_rect" : [ 742.75, 628.33728, 34.0, 22.0 ],
									"style" : "",
									"text" : "> 95"
								}

							}
, 							{
								"box" : 								{
									"id" : "obj-103",
									"maxclass" : "newobj",
									"numinlets" : 2,
									"numoutlets" : 1,
									"outlettype" : [ "int" ],
									"patching_rect" : [ 659.75, 654.33728, 59.0, 22.0 ],
									"style" : "",
									"text" : "&&"
								}

							}
, 							{
								"box" : 								{
									"id" : "obj-104",
									"maxclass" : "newobj",
									"numinlets" : 2,
									"numoutlets" : 1,
									"outlettype" : [ "int" ],
									"patching_rect" : [ 699.75, 628.33728, 34.0, 22.0 ],
									"style" : "",
									"text" : "< 95"
								}

							}
, 							{
								"box" : 								{
									"id" : "obj-105",
									"maxclass" : "newobj",
									"numinlets" : 2,
									"numoutlets" : 1,
									"outlettype" : [ "int" ],
									"patching_rect" : [ 659.75, 628.33728, 34.0, 22.0 ],
									"style" : "",
									"text" : "> 85"
								}

							}
, 							{
								"box" : 								{
									"id" : "obj-88",
									"maxclass" : "newobj",
									"numinlets" : 2,
									"numoutlets" : 1,
									"outlettype" : [ "bang" ],
									"patching_rect" : [ 135.0, 399.170593, 56.0, 22.0 ],
									"style" : "",
									"text" : "delay 25"
								}

							}
, 							{
								"box" : 								{
									"id" : "obj-82",
									"maxclass" : "newobj",
									"numinlets" : 2,
									"numoutlets" : 2,
									"outlettype" : [ "", "" ],
									"patching_rect" : [ 103.5, 496.503906, 48.0, 22.0 ],
									"style" : "",
									"text" : "route 1"
								}

							}
, 							{
								"box" : 								{
									"id" : "obj-79",
									"maxclass" : "button",
									"numinlets" : 1,
									"numoutlets" : 1,
									"outlettype" : [ "bang" ],
									"patching_rect" : [ 103.5, 342.803955, 24.0, 24.0 ],
									"style" : ""
								}

							}
, 							{
								"box" : 								{
									"id" : "obj-77",
									"maxclass" : "message",
									"numinlets" : 2,
									"numoutlets" : 1,
									"outlettype" : [ "" ],
									"patching_rect" : [ 135.0, 429.403931, 29.5, 22.0 ],
									"style" : "",
									"text" : "0"
								}

							}
, 							{
								"box" : 								{
									"id" : "obj-71",
									"maxclass" : "number",
									"numinlets" : 1,
									"numoutlets" : 2,
									"outlettype" : [ "", "bang" ],
									"parameter_enable" : 0,
									"patching_rect" : [ 51.200012, 496.503906, 50.0, 22.0 ],
									"style" : ""
								}

							}
, 							{
								"box" : 								{
									"id" : "obj-68",
									"maxclass" : "newobj",
									"numinlets" : 5,
									"numoutlets" : 4,
									"outlettype" : [ "int", "", "", "int" ],
									"patching_rect" : [ 103.5, 463.870605, 61.0, 22.0 ],
									"style" : "",
									"text" : "counter"
								}

							}
, 							{
								"box" : 								{
									"id" : "obj-67",
									"maxclass" : "toggle",
									"numinlets" : 1,
									"numoutlets" : 1,
									"outlettype" : [ "int" ],
									"parameter_enable" : 0,
									"patching_rect" : [ 135.0, 311.337219, 24.0, 24.0 ],
									"style" : ""
								}

							}
, 							{
								"box" : 								{
									"id" : "obj-62",
									"maxclass" : "toggle",
									"numinlets" : 1,
									"numoutlets" : 1,
									"outlettype" : [ "int" ],
									"parameter_enable" : 0,
									"patching_rect" : [ 103.5, 311.337219, 24.0, 24.0 ],
									"style" : ""
								}

							}
, 							{
								"box" : 								{
									"id" : "obj-59",
									"maxclass" : "newobj",
									"numinlets" : 1,
									"numoutlets" : 2,
									"outlettype" : [ "bang", "bang" ],
									"patching_rect" : [ 103.5, 285.003906, 54.0, 22.0 ],
									"style" : "",
									"text" : "togedge"
								}

							}
, 							{
								"box" : 								{
									"id" : "obj-210",
									"maxclass" : "newobj",
									"numinlets" : 2,
									"numoutlets" : 1,
									"outlettype" : [ "int" ],
									"patching_rect" : [ 581.75, 654.33728, 59.0, 22.0 ],
									"style" : "",
									"text" : "&&"
								}

							}
, 							{
								"box" : 								{
									"id" : "obj-211",
									"maxclass" : "newobj",
									"numinlets" : 2,
									"numoutlets" : 1,
									"outlettype" : [ "int" ],
									"patching_rect" : [ 621.75, 628.33728, 34.0, 22.0 ],
									"style" : "",
									"text" : "< 80"
								}

							}
, 							{
								"box" : 								{
									"id" : "obj-212",
									"maxclass" : "newobj",
									"numinlets" : 2,
									"numoutlets" : 1,
									"outlettype" : [ "int" ],
									"patching_rect" : [ 581.75, 628.33728, 34.0, 22.0 ],
									"style" : "",
									"text" : "> 70"
								}

							}
, 							{
								"box" : 								{
									"id" : "obj-206",
									"maxclass" : "newobj",
									"numinlets" : 2,
									"numoutlets" : 1,
									"outlettype" : [ "int" ],
									"patching_rect" : [ 503.75, 654.33728, 59.0, 22.0 ],
									"style" : "",
									"text" : "&&"
								}

							}
, 							{
								"box" : 								{
									"id" : "obj-207",
									"maxclass" : "newobj",
									"numinlets" : 2,
									"numoutlets" : 1,
									"outlettype" : [ "int" ],
									"patching_rect" : [ 543.75, 628.33728, 34.0, 22.0 ],
									"style" : "",
									"text" : "< 70"
								}

							}
, 							{
								"box" : 								{
									"id" : "obj-208",
									"maxclass" : "newobj",
									"numinlets" : 2,
									"numoutlets" : 1,
									"outlettype" : [ "int" ],
									"patching_rect" : [ 503.75, 628.33728, 34.0, 22.0 ],
									"style" : "",
									"text" : "> 60"
								}

							}
, 							{
								"box" : 								{
									"id" : "obj-202",
									"maxclass" : "newobj",
									"numinlets" : 2,
									"numoutlets" : 1,
									"outlettype" : [ "int" ],
									"patching_rect" : [ 425.75, 654.33728, 59.0, 22.0 ],
									"style" : "",
									"text" : "&&"
								}

							}
, 							{
								"box" : 								{
									"id" : "obj-203",
									"maxclass" : "newobj",
									"numinlets" : 2,
									"numoutlets" : 1,
									"outlettype" : [ "int" ],
									"patching_rect" : [ 465.75, 628.33728, 34.0, 22.0 ],
									"style" : "",
									"text" : "< 60"
								}

							}
, 							{
								"box" : 								{
									"id" : "obj-204",
									"maxclass" : "newobj",
									"numinlets" : 2,
									"numoutlets" : 1,
									"outlettype" : [ "int" ],
									"patching_rect" : [ 425.75, 628.33728, 34.0, 22.0 ],
									"style" : "",
									"text" : "> 50"
								}

							}
, 							{
								"box" : 								{
									"id" : "obj-198",
									"maxclass" : "newobj",
									"numinlets" : 2,
									"numoutlets" : 1,
									"outlettype" : [ "int" ],
									"patching_rect" : [ 347.75, 654.33728, 59.0, 22.0 ],
									"style" : "",
									"text" : "&&"
								}

							}
, 							{
								"box" : 								{
									"id" : "obj-199",
									"maxclass" : "newobj",
									"numinlets" : 2,
									"numoutlets" : 1,
									"outlettype" : [ "int" ],
									"patching_rect" : [ 387.75, 628.33728, 34.0, 22.0 ],
									"style" : "",
									"text" : "< 50"
								}

							}
, 							{
								"box" : 								{
									"id" : "obj-200",
									"maxclass" : "newobj",
									"numinlets" : 2,
									"numoutlets" : 1,
									"outlettype" : [ "int" ],
									"patching_rect" : [ 347.75, 628.33728, 34.0, 22.0 ],
									"style" : "",
									"text" : "> 40"
								}

							}
, 							{
								"box" : 								{
									"id" : "obj-194",
									"maxclass" : "newobj",
									"numinlets" : 2,
									"numoutlets" : 1,
									"outlettype" : [ "int" ],
									"patching_rect" : [ 269.75, 654.33728, 59.0, 22.0 ],
									"style" : "",
									"text" : "&&"
								}

							}
, 							{
								"box" : 								{
									"id" : "obj-195",
									"maxclass" : "newobj",
									"numinlets" : 2,
									"numoutlets" : 1,
									"outlettype" : [ "int" ],
									"patching_rect" : [ 309.75, 628.33728, 34.0, 22.0 ],
									"style" : "",
									"text" : "< 40"
								}

							}
, 							{
								"box" : 								{
									"id" : "obj-196",
									"maxclass" : "newobj",
									"numinlets" : 2,
									"numoutlets" : 1,
									"outlettype" : [ "int" ],
									"patching_rect" : [ 269.75, 628.33728, 34.0, 22.0 ],
									"style" : "",
									"text" : "> 30"
								}

							}
, 							{
								"box" : 								{
									"id" : "obj-190",
									"maxclass" : "newobj",
									"numinlets" : 2,
									"numoutlets" : 1,
									"outlettype" : [ "int" ],
									"patching_rect" : [ 191.75, 654.33728, 59.0, 22.0 ],
									"style" : "",
									"text" : "&&"
								}

							}
, 							{
								"box" : 								{
									"id" : "obj-191",
									"maxclass" : "newobj",
									"numinlets" : 2,
									"numoutlets" : 1,
									"outlettype" : [ "int" ],
									"patching_rect" : [ 231.75, 628.33728, 34.0, 22.0 ],
									"style" : "",
									"text" : "< 30"
								}

							}
, 							{
								"box" : 								{
									"id" : "obj-192",
									"maxclass" : "newobj",
									"numinlets" : 2,
									"numoutlets" : 1,
									"outlettype" : [ "int" ],
									"patching_rect" : [ 191.75, 628.33728, 34.0, 22.0 ],
									"style" : "",
									"text" : "> 20"
								}

							}
, 							{
								"box" : 								{
									"id" : "obj-180",
									"maxclass" : "newobj",
									"numinlets" : 2,
									"numoutlets" : 1,
									"outlettype" : [ "int" ],
									"patching_rect" : [ 113.75, 654.33728, 59.0, 22.0 ],
									"style" : "",
									"text" : "&&"
								}

							}
, 							{
								"box" : 								{
									"id" : "obj-178",
									"maxclass" : "newobj",
									"numinlets" : 2,
									"numoutlets" : 1,
									"outlettype" : [ "int" ],
									"patching_rect" : [ 153.75, 628.33728, 34.0, 22.0 ],
									"style" : "",
									"text" : "< 18"
								}

							}
, 							{
								"box" : 								{
									"id" : "obj-179",
									"maxclass" : "newobj",
									"numinlets" : 2,
									"numoutlets" : 1,
									"outlettype" : [ "int" ],
									"patching_rect" : [ 113.75, 628.33728, 33.0, 22.0 ],
									"style" : "",
									"text" : "> 11"
								}

							}
, 							{
								"box" : 								{
									"id" : "obj-156",
									"maxclass" : "number",
									"numinlets" : 1,
									"numoutlets" : 2,
									"outlettype" : [ "", "bang" ],
									"parameter_enable" : 0,
									"patching_rect" : [ 105.25, 588.003906, 50.0, 22.0 ],
									"style" : ""
								}

							}
, 							{
								"box" : 								{
									"id" : "obj-152",
									"maxclass" : "newobj",
									"numinlets" : 2,
									"numoutlets" : 1,
									"outlettype" : [ "int" ],
									"patching_rect" : [ 103.5, 564.003906, 29.5, 22.0 ],
									"style" : "",
									"text" : "int"
								}

							}
, 							{
								"box" : 								{
									"id" : "obj-80",
									"maxclass" : "message",
									"numinlets" : 2,
									"numoutlets" : 1,
									"outlettype" : [ "" ],
									"patching_rect" : [ 162.5, 91.406128, 50.0, 22.0 ],
									"style" : "",
									"text" : "1"
								}

							}
, 							{
								"box" : 								{
									"id" : "obj-65",
									"maxclass" : "newobj",
									"numinlets" : 1,
									"numoutlets" : 1,
									"outlettype" : [ "" ],
									"patching_rect" : [ 103.5, 157.739441, 109.0, 22.0 ],
									"style" : "",
									"text" : "if $i1 > 13 then $i1"
								}

							}
, 							{
								"box" : 								{
									"id" : "obj-64",
									"maxclass" : "message",
									"numinlets" : 2,
									"numoutlets" : 1,
									"outlettype" : [ "" ],
									"patching_rect" : [ 124.5, 190.623962, 29.5, 22.0 ],
									"style" : "",
									"text" : "0"
								}

							}
, 							{
								"box" : 								{
									"id" : "obj-60",
									"maxclass" : "number",
									"numinlets" : 1,
									"numoutlets" : 2,
									"outlettype" : [ "", "bang" ],
									"parameter_enable" : 0,
									"patching_rect" : [ 103.5, 248.909668, 50.0, 22.0 ],
									"style" : ""
								}

							}
, 							{
								"box" : 								{
									"id" : "obj-47",
									"maxclass" : "number",
									"numinlets" : 1,
									"numoutlets" : 2,
									"outlettype" : [ "", "bang" ],
									"parameter_enable" : 0,
									"patching_rect" : [ 103.5, 129.072815, 50.0, 22.0 ],
									"style" : ""
								}

							}
, 							{
								"box" : 								{
									"id" : "obj-45",
									"maxclass" : "newobj",
									"numinlets" : 1,
									"numoutlets" : 3,
									"outlettype" : [ "", "int", "int" ],
									"patching_rect" : [ 103.5, 101.406128, 50.0, 22.0 ],
									"style" : "",
									"text" : "change"
								}

							}
, 							{
								"box" : 								{
									"id" : "obj-39",
									"maxclass" : "newobj",
									"numinlets" : 5,
									"numoutlets" : 4,
									"outlettype" : [ "int", "", "", "int" ],
									"patching_rect" : [ 103.5, 218.242981, 61.0, 22.0 ],
									"style" : "",
									"text" : "counter"
								}

							}
, 							{
								"box" : 								{
									"comment" : "",
									"id" : "obj-296",
									"maxclass" : "inlet",
									"numinlets" : 0,
									"numoutlets" : 1,
									"outlettype" : [ "int" ],
									"patching_rect" : [ 103.5, 25.0, 30.0, 30.0 ],
									"style" : ""
								}

							}
, 							{
								"box" : 								{
									"comment" : "",
									"id" : "obj-297",
									"maxclass" : "outlet",
									"numinlets" : 1,
									"numoutlets" : 0,
									"patching_rect" : [ 113.75, 763.203979, 30.0, 30.0 ],
									"style" : ""
								}

							}
, 							{
								"box" : 								{
									"comment" : "",
									"id" : "obj-298",
									"maxclass" : "outlet",
									"numinlets" : 1,
									"numoutlets" : 0,
									"patching_rect" : [ 191.75, 763.203979, 30.0, 30.0 ],
									"style" : ""
								}

							}
, 							{
								"box" : 								{
									"comment" : "",
									"id" : "obj-299",
									"maxclass" : "outlet",
									"numinlets" : 1,
									"numoutlets" : 0,
									"patching_rect" : [ 269.75, 763.203979, 30.0, 30.0 ],
									"style" : ""
								}

							}
, 							{
								"box" : 								{
									"comment" : "",
									"id" : "obj-300",
									"maxclass" : "outlet",
									"numinlets" : 1,
									"numoutlets" : 0,
									"patching_rect" : [ 347.75, 763.203979, 30.0, 30.0 ],
									"style" : ""
								}

							}
, 							{
								"box" : 								{
									"comment" : "",
									"id" : "obj-301",
									"maxclass" : "outlet",
									"numinlets" : 1,
									"numoutlets" : 0,
									"patching_rect" : [ 425.75, 763.203979, 30.0, 30.0 ],
									"style" : ""
								}

							}
, 							{
								"box" : 								{
									"comment" : "",
									"id" : "obj-302",
									"maxclass" : "outlet",
									"numinlets" : 1,
									"numoutlets" : 0,
									"patching_rect" : [ 502.949951, 763.203979, 30.0, 30.0 ],
									"style" : ""
								}

							}
, 							{
								"box" : 								{
									"comment" : "",
									"id" : "obj-303",
									"maxclass" : "outlet",
									"numinlets" : 1,
									"numoutlets" : 0,
									"patching_rect" : [ 581.75, 763.203979, 30.0, 30.0 ],
									"style" : ""
								}

							}
, 							{
								"box" : 								{
									"comment" : "",
									"id" : "obj-304",
									"maxclass" : "outlet",
									"numinlets" : 1,
									"numoutlets" : 0,
									"patching_rect" : [ 659.75, 763.203979, 30.0, 30.0 ],
									"style" : ""
								}

							}
, 							{
								"box" : 								{
									"comment" : "",
									"id" : "obj-305",
									"maxclass" : "outlet",
									"numinlets" : 1,
									"numoutlets" : 0,
									"patching_rect" : [ 742.75, 763.203979, 30.0, 30.0 ],
									"style" : ""
								}

							}
, 							{
								"box" : 								{
									"comment" : "",
									"id" : "obj-306",
									"maxclass" : "outlet",
									"numinlets" : 1,
									"numoutlets" : 0,
									"patching_rect" : [ 832.950012, 763.203979, 30.0, 30.0 ],
									"style" : ""
								}

							}
 ],
						"lines" : [ 							{
								"patchline" : 								{
									"destination" : [ "obj-280", 0 ],
									"disabled" : 0,
									"hidden" : 0,
									"source" : [ "obj-1", 0 ]
								}

							}
, 							{
								"patchline" : 								{
									"destination" : [ "obj-96", 0 ],
									"disabled" : 0,
									"hidden" : 0,
									"source" : [ "obj-101", 0 ]
								}

							}
, 							{
								"patchline" : 								{
									"destination" : [ "obj-141", 0 ],
									"disabled" : 0,
									"hidden" : 0,
									"source" : [ "obj-103", 0 ]
								}

							}
, 							{
								"patchline" : 								{
									"destination" : [ "obj-103", 1 ],
									"disabled" : 0,
									"hidden" : 0,
									"source" : [ "obj-104", 0 ]
								}

							}
, 							{
								"patchline" : 								{
									"destination" : [ "obj-103", 0 ],
									"disabled" : 0,
									"hidden" : 0,
									"source" : [ "obj-105", 0 ]
								}

							}
, 							{
								"patchline" : 								{
									"destination" : [ "obj-297", 0 ],
									"disabled" : 0,
									"hidden" : 0,
									"source" : [ "obj-128", 0 ]
								}

							}
, 							{
								"patchline" : 								{
									"destination" : [ "obj-298", 0 ],
									"disabled" : 0,
									"hidden" : 0,
									"source" : [ "obj-134", 0 ]
								}

							}
, 							{
								"patchline" : 								{
									"destination" : [ "obj-299", 0 ],
									"disabled" : 0,
									"hidden" : 0,
									"source" : [ "obj-135", 0 ]
								}

							}
, 							{
								"patchline" : 								{
									"destination" : [ "obj-300", 0 ],
									"disabled" : 0,
									"hidden" : 0,
									"source" : [ "obj-136", 0 ]
								}

							}
, 							{
								"patchline" : 								{
									"destination" : [ "obj-301", 0 ],
									"disabled" : 0,
									"hidden" : 0,
									"source" : [ "obj-137", 0 ]
								}

							}
, 							{
								"patchline" : 								{
									"destination" : [ "obj-302", 0 ],
									"disabled" : 0,
									"hidden" : 0,
									"source" : [ "obj-138", 0 ]
								}

							}
, 							{
								"patchline" : 								{
									"destination" : [ "obj-303", 0 ],
									"disabled" : 0,
									"hidden" : 0,
									"source" : [ "obj-139", 0 ]
								}

							}
, 							{
								"patchline" : 								{
									"destination" : [ "obj-304", 0 ],
									"disabled" : 0,
									"hidden" : 0,
									"source" : [ "obj-141", 0 ]
								}

							}
, 							{
								"patchline" : 								{
									"destination" : [ "obj-305", 0 ],
									"disabled" : 0,
									"hidden" : 0,
									"source" : [ "obj-142", 0 ]
								}

							}
, 							{
								"patchline" : 								{
									"destination" : [ "obj-306", 0 ],
									"disabled" : 0,
									"hidden" : 0,
									"source" : [ "obj-143", 0 ]
								}

							}
, 							{
								"patchline" : 								{
									"destination" : [ "obj-156", 0 ],
									"disabled" : 0,
									"hidden" : 0,
									"source" : [ "obj-152", 0 ]
								}

							}
, 							{
								"patchline" : 								{
									"destination" : [ "obj-101", 0 ],
									"disabled" : 0,
									"hidden" : 0,
									"source" : [ "obj-156", 0 ]
								}

							}
, 							{
								"patchline" : 								{
									"destination" : [ "obj-104", 0 ],
									"disabled" : 0,
									"hidden" : 0,
									"source" : [ "obj-156", 0 ]
								}

							}
, 							{
								"patchline" : 								{
									"destination" : [ "obj-105", 0 ],
									"disabled" : 0,
									"hidden" : 0,
									"source" : [ "obj-156", 0 ]
								}

							}
, 							{
								"patchline" : 								{
									"destination" : [ "obj-160", 0 ],
									"disabled" : 0,
									"hidden" : 0,
									"source" : [ "obj-156", 0 ]
								}

							}
, 							{
								"patchline" : 								{
									"destination" : [ "obj-161", 0 ],
									"disabled" : 0,
									"hidden" : 0,
									"source" : [ "obj-156", 0 ]
								}

							}
, 							{
								"patchline" : 								{
									"destination" : [ "obj-178", 0 ],
									"disabled" : 0,
									"hidden" : 0,
									"source" : [ "obj-156", 0 ]
								}

							}
, 							{
								"patchline" : 								{
									"destination" : [ "obj-179", 0 ],
									"disabled" : 0,
									"hidden" : 0,
									"source" : [ "obj-156", 0 ]
								}

							}
, 							{
								"patchline" : 								{
									"destination" : [ "obj-191", 0 ],
									"disabled" : 0,
									"hidden" : 0,
									"source" : [ "obj-156", 0 ]
								}

							}
, 							{
								"patchline" : 								{
									"destination" : [ "obj-192", 0 ],
									"disabled" : 0,
									"hidden" : 0,
									"source" : [ "obj-156", 0 ]
								}

							}
, 							{
								"patchline" : 								{
									"destination" : [ "obj-195", 0 ],
									"disabled" : 0,
									"hidden" : 0,
									"source" : [ "obj-156", 0 ]
								}

							}
, 							{
								"patchline" : 								{
									"destination" : [ "obj-196", 0 ],
									"disabled" : 0,
									"hidden" : 0,
									"source" : [ "obj-156", 0 ]
								}

							}
, 							{
								"patchline" : 								{
									"destination" : [ "obj-199", 0 ],
									"disabled" : 0,
									"hidden" : 0,
									"source" : [ "obj-156", 0 ]
								}

							}
, 							{
								"patchline" : 								{
									"destination" : [ "obj-200", 0 ],
									"disabled" : 0,
									"hidden" : 0,
									"source" : [ "obj-156", 0 ]
								}

							}
, 							{
								"patchline" : 								{
									"destination" : [ "obj-203", 0 ],
									"disabled" : 0,
									"hidden" : 0,
									"source" : [ "obj-156", 0 ]
								}

							}
, 							{
								"patchline" : 								{
									"destination" : [ "obj-204", 0 ],
									"disabled" : 0,
									"hidden" : 0,
									"source" : [ "obj-156", 0 ]
								}

							}
, 							{
								"patchline" : 								{
									"destination" : [ "obj-207", 0 ],
									"disabled" : 0,
									"hidden" : 0,
									"source" : [ "obj-156", 0 ]
								}

							}
, 							{
								"patchline" : 								{
									"destination" : [ "obj-208", 0 ],
									"disabled" : 0,
									"hidden" : 0,
									"source" : [ "obj-156", 0 ]
								}

							}
, 							{
								"patchline" : 								{
									"destination" : [ "obj-211", 0 ],
									"disabled" : 0,
									"hidden" : 0,
									"source" : [ "obj-156", 0 ]
								}

							}
, 							{
								"patchline" : 								{
									"destination" : [ "obj-212", 0 ],
									"disabled" : 0,
									"hidden" : 0,
									"source" : [ "obj-156", 0 ]
								}

							}
, 							{
								"patchline" : 								{
									"destination" : [ "obj-64", 0 ],
									"disabled" : 0,
									"hidden" : 0,
									"midpoints" : [ 114.75, 613.003906, 36.5, 613.003906, 36.5, 190.003906, 120.5, 190.003906, 120.5, 187.003906, 134.0, 187.003906 ],
									"source" : [ "obj-156", 0 ]
								}

							}
, 							{
								"patchline" : 								{
									"destination" : [ "obj-98", 0 ],
									"disabled" : 0,
									"hidden" : 0,
									"source" : [ "obj-156", 0 ]
								}

							}
, 							{
								"patchline" : 								{
									"destination" : [ "obj-143", 0 ],
									"disabled" : 0,
									"hidden" : 0,
									"source" : [ "obj-159", 0 ]
								}

							}
, 							{
								"patchline" : 								{
									"destination" : [ "obj-159", 1 ],
									"disabled" : 0,
									"hidden" : 0,
									"source" : [ "obj-160", 0 ]
								}

							}
, 							{
								"patchline" : 								{
									"destination" : [ "obj-159", 0 ],
									"disabled" : 0,
									"hidden" : 0,
									"source" : [ "obj-161", 0 ]
								}

							}
, 							{
								"patchline" : 								{
									"destination" : [ "obj-180", 1 ],
									"disabled" : 0,
									"hidden" : 0,
									"source" : [ "obj-178", 0 ]
								}

							}
, 							{
								"patchline" : 								{
									"destination" : [ "obj-180", 0 ],
									"disabled" : 0,
									"hidden" : 0,
									"source" : [ "obj-179", 0 ]
								}

							}
, 							{
								"patchline" : 								{
									"destination" : [ "obj-128", 0 ],
									"disabled" : 0,
									"hidden" : 0,
									"source" : [ "obj-180", 0 ]
								}

							}
, 							{
								"patchline" : 								{
									"destination" : [ "obj-134", 0 ],
									"disabled" : 0,
									"hidden" : 0,
									"source" : [ "obj-190", 0 ]
								}

							}
, 							{
								"patchline" : 								{
									"destination" : [ "obj-190", 1 ],
									"disabled" : 0,
									"hidden" : 0,
									"source" : [ "obj-191", 0 ]
								}

							}
, 							{
								"patchline" : 								{
									"destination" : [ "obj-190", 0 ],
									"disabled" : 0,
									"hidden" : 0,
									"source" : [ "obj-192", 0 ]
								}

							}
, 							{
								"patchline" : 								{
									"destination" : [ "obj-135", 0 ],
									"disabled" : 0,
									"hidden" : 0,
									"source" : [ "obj-194", 0 ]
								}

							}
, 							{
								"patchline" : 								{
									"destination" : [ "obj-194", 1 ],
									"disabled" : 0,
									"hidden" : 0,
									"source" : [ "obj-195", 0 ]
								}

							}
, 							{
								"patchline" : 								{
									"destination" : [ "obj-194", 0 ],
									"disabled" : 0,
									"hidden" : 0,
									"source" : [ "obj-196", 0 ]
								}

							}
, 							{
								"patchline" : 								{
									"destination" : [ "obj-136", 0 ],
									"disabled" : 0,
									"hidden" : 0,
									"source" : [ "obj-198", 0 ]
								}

							}
, 							{
								"patchline" : 								{
									"destination" : [ "obj-198", 1 ],
									"disabled" : 0,
									"hidden" : 0,
									"source" : [ "obj-199", 0 ]
								}

							}
, 							{
								"patchline" : 								{
									"destination" : [ "obj-198", 0 ],
									"disabled" : 0,
									"hidden" : 0,
									"source" : [ "obj-200", 0 ]
								}

							}
, 							{
								"patchline" : 								{
									"destination" : [ "obj-137", 0 ],
									"disabled" : 0,
									"hidden" : 0,
									"source" : [ "obj-202", 0 ]
								}

							}
, 							{
								"patchline" : 								{
									"destination" : [ "obj-202", 1 ],
									"disabled" : 0,
									"hidden" : 0,
									"source" : [ "obj-203", 0 ]
								}

							}
, 							{
								"patchline" : 								{
									"destination" : [ "obj-202", 0 ],
									"disabled" : 0,
									"hidden" : 0,
									"source" : [ "obj-204", 0 ]
								}

							}
, 							{
								"patchline" : 								{
									"destination" : [ "obj-138", 0 ],
									"disabled" : 0,
									"hidden" : 0,
									"source" : [ "obj-206", 0 ]
								}

							}
, 							{
								"patchline" : 								{
									"destination" : [ "obj-206", 1 ],
									"disabled" : 0,
									"hidden" : 0,
									"source" : [ "obj-207", 0 ]
								}

							}
, 							{
								"patchline" : 								{
									"destination" : [ "obj-206", 0 ],
									"disabled" : 0,
									"hidden" : 0,
									"source" : [ "obj-208", 0 ]
								}

							}
, 							{
								"patchline" : 								{
									"destination" : [ "obj-139", 0 ],
									"disabled" : 0,
									"hidden" : 0,
									"source" : [ "obj-210", 0 ]
								}

							}
, 							{
								"patchline" : 								{
									"destination" : [ "obj-210", 1 ],
									"disabled" : 0,
									"hidden" : 0,
									"source" : [ "obj-211", 0 ]
								}

							}
, 							{
								"patchline" : 								{
									"destination" : [ "obj-210", 0 ],
									"disabled" : 0,
									"hidden" : 0,
									"source" : [ "obj-212", 0 ]
								}

							}
, 							{
								"patchline" : 								{
									"destination" : [ "obj-68", 0 ],
									"disabled" : 0,
									"hidden" : 0,
									"midpoints" : [ 113.0, 397.003906, 113.0, 397.003906 ],
									"source" : [ "obj-266", 0 ]
								}

							}
, 							{
								"patchline" : 								{
									"destination" : [ "obj-152", 0 ],
									"disabled" : 0,
									"hidden" : 0,
									"source" : [ "obj-280", 0 ]
								}

							}
, 							{
								"patchline" : 								{
									"destination" : [ "obj-88", 0 ],
									"disabled" : 0,
									"hidden" : 0,
									"midpoints" : [ 113.0, 550.003906, 36.5, 550.003906, 36.5, 406.003906, 129.5, 406.003906, 129.5, 394.003906, 144.5, 394.003906 ],
									"source" : [ "obj-280", 0 ]
								}

							}
, 							{
								"patchline" : 								{
									"destination" : [ "obj-45", 0 ],
									"disabled" : 0,
									"hidden" : 0,
									"source" : [ "obj-296", 0 ]
								}

							}
, 							{
								"patchline" : 								{
									"destination" : [ "obj-60", 0 ],
									"disabled" : 0,
									"hidden" : 0,
									"source" : [ "obj-39", 0 ]
								}

							}
, 							{
								"patchline" : 								{
									"destination" : [ "obj-47", 0 ],
									"disabled" : 0,
									"hidden" : 0,
									"source" : [ "obj-45", 0 ]
								}

							}
, 							{
								"patchline" : 								{
									"destination" : [ "obj-80", 1 ],
									"disabled" : 0,
									"hidden" : 0,
									"source" : [ "obj-45", 2 ]
								}

							}
, 							{
								"patchline" : 								{
									"destination" : [ "obj-65", 0 ],
									"disabled" : 0,
									"hidden" : 0,
									"source" : [ "obj-47", 0 ]
								}

							}
, 							{
								"patchline" : 								{
									"destination" : [ "obj-62", 0 ],
									"disabled" : 0,
									"hidden" : 0,
									"midpoints" : [ 113.0, 310.003906, 113.0, 310.003906 ],
									"source" : [ "obj-59", 0 ]
								}

							}
, 							{
								"patchline" : 								{
									"destination" : [ "obj-67", 0 ],
									"disabled" : 0,
									"hidden" : 0,
									"midpoints" : [ 148.0, 307.003906, 144.5, 307.003906 ],
									"source" : [ "obj-59", 1 ]
								}

							}
, 							{
								"patchline" : 								{
									"destination" : [ "obj-152", 1 ],
									"disabled" : 0,
									"hidden" : 0,
									"midpoints" : [ 113.0, 271.003906, 36.5, 271.003906, 36.5, 559.003906, 123.5, 559.003906 ],
									"source" : [ "obj-60", 0 ]
								}

							}
, 							{
								"patchline" : 								{
									"destination" : [ "obj-59", 0 ],
									"disabled" : 0,
									"hidden" : 0,
									"midpoints" : [ 113.0, 271.003906, 113.0, 271.003906 ],
									"source" : [ "obj-60", 0 ]
								}

							}
, 							{
								"patchline" : 								{
									"destination" : [ "obj-79", 0 ],
									"disabled" : 0,
									"hidden" : 0,
									"midpoints" : [ 113.0, 337.003906, 113.0, 337.003906 ],
									"source" : [ "obj-62", 0 ]
								}

							}
, 							{
								"patchline" : 								{
									"destination" : [ "obj-39", 2 ],
									"disabled" : 0,
									"hidden" : 0,
									"source" : [ "obj-64", 0 ]
								}

							}
, 							{
								"patchline" : 								{
									"destination" : [ "obj-39", 0 ],
									"disabled" : 0,
									"hidden" : 0,
									"source" : [ "obj-65", 0 ]
								}

							}
, 							{
								"patchline" : 								{
									"destination" : [ "obj-79", 0 ],
									"disabled" : 0,
									"hidden" : 0,
									"midpoints" : [ 144.5, 337.003906, 113.0, 337.003906 ],
									"source" : [ "obj-67", 0 ]
								}

							}
, 							{
								"patchline" : 								{
									"destination" : [ "obj-71", 0 ],
									"disabled" : 0,
									"hidden" : 0,
									"source" : [ "obj-68", 0 ]
								}

							}
, 							{
								"patchline" : 								{
									"destination" : [ "obj-82", 0 ],
									"disabled" : 0,
									"hidden" : 0,
									"source" : [ "obj-68", 0 ]
								}

							}
, 							{
								"patchline" : 								{
									"destination" : [ "obj-68", 3 ],
									"disabled" : 0,
									"hidden" : 0,
									"source" : [ "obj-77", 0 ]
								}

							}
, 							{
								"patchline" : 								{
									"destination" : [ "obj-266", 0 ],
									"disabled" : 0,
									"hidden" : 0,
									"midpoints" : [ 113.0, 367.003906, 113.0, 367.003906 ],
									"source" : [ "obj-79", 0 ]
								}

							}
, 							{
								"patchline" : 								{
									"destination" : [ "obj-280", 0 ],
									"disabled" : 0,
									"hidden" : 0,
									"source" : [ "obj-82", 0 ]
								}

							}
, 							{
								"patchline" : 								{
									"destination" : [ "obj-77", 0 ],
									"disabled" : 0,
									"hidden" : 0,
									"source" : [ "obj-88", 0 ]
								}

							}
, 							{
								"patchline" : 								{
									"destination" : [ "obj-142", 0 ],
									"disabled" : 0,
									"hidden" : 0,
									"source" : [ "obj-96", 0 ]
								}

							}
, 							{
								"patchline" : 								{
									"destination" : [ "obj-96", 1 ],
									"disabled" : 0,
									"hidden" : 0,
									"source" : [ "obj-98", 0 ]
								}

							}
 ]
					}
,
					"patching_rect" : [ 12.723633, 417.996094, 978.849976, 22.0 ],
					"saved_object_attributes" : 					{
						"description" : "",
						"digest" : "",
						"globalpatchername" : "",
						"style" : "",
						"tags" : ""
					}
,
					"style" : "",
					"text" : "p LinesmanPhone_RotaryInput"
				}

			}
, 			{
				"box" : 				{
					"bgcolor" : [ 0.862745, 0.870588, 0.878431, 0.0 ],
					"fontsize" : 36.0,
					"id" : "obj-295",
					"maxclass" : "comment",
					"numinlets" : 1,
					"numoutlets" : 0,
					"patching_rect" : [ 976.823608, 473.450073, 96.400002, 47.0 ],
					"style" : "",
					"text" : "0",
					"textcolor" : [ 1.0, 1.0, 1.0, 1.0 ],
					"textjustification" : 1
				}

			}
, 			{
				"box" : 				{
					"bgcolor" : [ 0.862745, 0.870588, 0.878431, 0.0 ],
					"fontsize" : 36.0,
					"id" : "obj-294",
					"maxclass" : "comment",
					"numinlets" : 1,
					"numoutlets" : 0,
					"patching_rect" : [ 870.023682, 473.450073, 96.400002, 47.0 ],
					"style" : "",
					"text" : "9",
					"textcolor" : [ 1.0, 1.0, 1.0, 1.0 ],
					"textjustification" : 1
				}

			}
, 			{
				"box" : 				{
					"bgcolor" : [ 0.862745, 0.870588, 0.878431, 0.0 ],
					"fontsize" : 36.0,
					"id" : "obj-293",
					"maxclass" : "comment",
					"numinlets" : 1,
					"numoutlets" : 0,
					"patching_rect" : [ 763.223694, 473.450073, 96.400002, 47.0 ],
					"style" : "",
					"text" : "8",
					"textcolor" : [ 1.0, 1.0, 1.0, 1.0 ],
					"textjustification" : 1
				}

			}
, 			{
				"box" : 				{
					"bgcolor" : [ 0.862745, 0.870588, 0.878431, 0.0 ],
					"fontsize" : 36.0,
					"id" : "obj-292",
					"maxclass" : "comment",
					"numinlets" : 1,
					"numoutlets" : 0,
					"patching_rect" : [ 656.573486, 473.450073, 96.400002, 47.0 ],
					"style" : "",
					"text" : "7",
					"textcolor" : [ 1.0, 1.0, 1.0, 1.0 ],
					"textjustification" : 1
				}

			}
, 			{
				"box" : 				{
					"bgcolor" : [ 0.862745, 0.870588, 0.878431, 0.0 ],
					"fontsize" : 36.0,
					"id" : "obj-291",
					"maxclass" : "comment",
					"numinlets" : 1,
					"numoutlets" : 0,
					"patching_rect" : [ 549.923523, 473.450073, 96.400002, 47.0 ],
					"style" : "",
					"text" : "6",
					"textcolor" : [ 1.0, 1.0, 1.0, 1.0 ],
					"textjustification" : 1
				}

			}
, 			{
				"box" : 				{
					"bgcolor" : [ 0.862745, 0.870588, 0.878431, 0.0 ],
					"fontsize" : 36.0,
					"id" : "obj-290",
					"maxclass" : "comment",
					"numinlets" : 1,
					"numoutlets" : 0,
					"patching_rect" : [ 443.27356, 473.450073, 96.400002, 47.0 ],
					"style" : "",
					"text" : "5",
					"textcolor" : [ 1.0, 1.0, 1.0, 1.0 ],
					"textjustification" : 1
				}

			}
, 			{
				"box" : 				{
					"bgcolor" : [ 0.862745, 0.870588, 0.878431, 0.0 ],
					"fontsize" : 36.0,
					"id" : "obj-289",
					"maxclass" : "comment",
					"numinlets" : 1,
					"numoutlets" : 0,
					"patching_rect" : [ 336.623566, 473.450073, 96.400002, 47.0 ],
					"style" : "",
					"text" : "4",
					"textcolor" : [ 1.0, 1.0, 1.0, 1.0 ],
					"textjustification" : 1
				}

			}
, 			{
				"box" : 				{
					"bgcolor" : [ 0.862745, 0.870588, 0.878431, 0.0 ],
					"fontsize" : 36.0,
					"id" : "obj-288",
					"maxclass" : "comment",
					"numinlets" : 1,
					"numoutlets" : 0,
					"patching_rect" : [ 229.973633, 473.450073, 96.400002, 47.0 ],
					"style" : "",
					"text" : "3",
					"textcolor" : [ 1.0, 1.0, 1.0, 1.0 ],
					"textjustification" : 1
				}

			}
, 			{
				"box" : 				{
					"bgcolor" : [ 0.862745, 0.870588, 0.878431, 0.0 ],
					"fontsize" : 36.0,
					"id" : "obj-287",
					"maxclass" : "comment",
					"numinlets" : 1,
					"numoutlets" : 0,
					"patching_rect" : [ 123.323639, 473.450073, 96.400002, 47.0 ],
					"style" : "",
					"text" : "2",
					"textcolor" : [ 1.0, 1.0, 1.0, 1.0 ],
					"textjustification" : 1
				}

			}
, 			{
				"box" : 				{
					"bgcolor" : [ 0.862745, 0.870588, 0.878431, 0.0 ],
					"fontsize" : 36.0,
					"id" : "obj-285",
					"maxclass" : "comment",
					"numinlets" : 1,
					"numoutlets" : 0,
					"patching_rect" : [ 16.673637, 473.450073, 96.400002, 47.0 ],
					"style" : "",
					"text" : "1",
					"textcolor" : [ 1.0, 1.0, 1.0, 1.0 ],
					"textjustification" : 1
				}

			}
, 			{
				"box" : 				{
					"id" : "obj-153",
					"maxclass" : "button",
					"numinlets" : 1,
					"numoutlets" : 1,
					"outlettype" : [ "bang" ],
					"patching_rect" : [ 972.873657, 444.800049, 104.300003, 104.300003 ],
					"style" : ""
				}

			}
, 			{
				"box" : 				{
					"id" : "obj-151",
					"maxclass" : "button",
					"numinlets" : 1,
					"numoutlets" : 1,
					"outlettype" : [ "bang" ],
					"patching_rect" : [ 866.073669, 444.800049, 104.300003, 104.300003 ],
					"style" : ""
				}

			}
, 			{
				"box" : 				{
					"id" : "obj-150",
					"maxclass" : "button",
					"numinlets" : 1,
					"numoutlets" : 1,
					"outlettype" : [ "bang" ],
					"patching_rect" : [ 759.273682, 444.800049, 104.300003, 104.300003 ],
					"style" : ""
				}

			}
, 			{
				"box" : 				{
					"id" : "obj-149",
					"maxclass" : "button",
					"numinlets" : 1,
					"numoutlets" : 1,
					"outlettype" : [ "bang" ],
					"patching_rect" : [ 652.623657, 444.800049, 104.300003, 104.300003 ],
					"style" : ""
				}

			}
, 			{
				"box" : 				{
					"id" : "obj-148",
					"maxclass" : "button",
					"numinlets" : 1,
					"numoutlets" : 1,
					"outlettype" : [ "bang" ],
					"patching_rect" : [ 545.973633, 444.800049, 104.300003, 104.300003 ],
					"style" : ""
				}

			}
, 			{
				"box" : 				{
					"id" : "obj-147",
					"maxclass" : "button",
					"numinlets" : 1,
					"numoutlets" : 1,
					"outlettype" : [ "bang" ],
					"patching_rect" : [ 439.323608, 444.800049, 104.300003, 104.300003 ],
					"style" : ""
				}

			}
, 			{
				"box" : 				{
					"id" : "obj-146",
					"maxclass" : "button",
					"numinlets" : 1,
					"numoutlets" : 1,
					"outlettype" : [ "bang" ],
					"patching_rect" : [ 332.673615, 444.800049, 104.300003, 104.300003 ],
					"style" : ""
				}

			}
, 			{
				"box" : 				{
					"id" : "obj-145",
					"maxclass" : "button",
					"numinlets" : 1,
					"numoutlets" : 1,
					"outlettype" : [ "bang" ],
					"patching_rect" : [ 226.023621, 444.800049, 104.300003, 104.300003 ],
					"style" : ""
				}

			}
, 			{
				"box" : 				{
					"id" : "obj-144",
					"maxclass" : "button",
					"numinlets" : 1,
					"numoutlets" : 1,
					"outlettype" : [ "bang" ],
					"patching_rect" : [ 119.373627, 444.800049, 104.300003, 104.300003 ],
					"style" : ""
				}

			}
, 			{
				"box" : 				{
					"id" : "obj-132",
					"maxclass" : "button",
					"numinlets" : 1,
					"numoutlets" : 1,
					"outlettype" : [ "bang" ],
					"patching_rect" : [ 12.723633, 444.800049, 104.300003, 104.300003 ],
					"style" : ""
				}

			}
, 			{
				"box" : 				{
					"fontname" : "Arial",
					"fontsize" : 12.0,
					"id" : "obj-40",
					"maxclass" : "newobj",
					"numinlets" : 1,
					"numoutlets" : 2,
					"outlettype" : [ "", "bang" ],
					"patcher" : 					{
						"fileversion" : 1,
						"appversion" : 						{
							"major" : 7,
							"minor" : 0,
							"revision" : 0,
							"architecture" : "x86",
							"modernui" : 1
						}
,
						"rect" : [ 0.0, 0.0, 640.0, 480.0 ],
						"bglocked" : 0,
						"openinpresentation" : 0,
						"default_fontsize" : 12.0,
						"default_fontface" : 0,
						"default_fontname" : "Arial",
						"gridonopen" : 1,
						"gridsize" : [ 15.0, 15.0 ],
						"gridsnaponopen" : 1,
						"objectsnaponopen" : 1,
						"statusbarvisible" : 2,
						"toolbarvisible" : 1,
						"lefttoolbarpinned" : 0,
						"toptoolbarpinned" : 0,
						"righttoolbarpinned" : 0,
						"bottomtoolbarpinned" : 0,
						"toolbars_unpinned_last_save" : 0,
						"tallnewobj" : 0,
						"boxanimatetime" : 200,
						"enablehscroll" : 1,
						"enablevscroll" : 1,
						"devicewidth" : 0.0,
						"description" : "",
						"digest" : "",
						"tags" : "",
						"style" : "",
						"subpatcher_template" : "",
						"boxes" : [ 							{
								"box" : 								{
									"fontname" : "Arial",
									"fontsize" : 12.0,
									"id" : "obj-79",
									"maxclass" : "message",
									"numinlets" : 2,
									"numoutlets" : 1,
									"outlettype" : [ "" ],
									"patching_rect" : [ 50.0, 160.623413, 37.0, 18.0 ],
									"style" : "",
									"text" : "set 0"
								}

							}
, 							{
								"box" : 								{
									"fontname" : "Arial",
									"fontsize" : 12.0,
									"id" : "obj-80",
									"linecount" : 2,
									"maxclass" : "newobj",
									"numinlets" : 2,
									"numoutlets" : 1,
									"outlettype" : [ "bang" ],
									"patching_rect" : [ 50.0, 127.623383, 41.0, 33.0 ],
									"style" : "",
									"text" : "delay 80"
								}

							}
, 							{
								"box" : 								{
									"fontname" : "Arial",
									"fontsize" : 12.0,
									"id" : "obj-81",
									"maxclass" : "newobj",
									"numinlets" : 2,
									"numoutlets" : 2,
									"outlettype" : [ "bang", "" ],
									"patching_rect" : [ 50.0, 100.0, 55.751682, 20.0 ],
									"style" : "",
									"text" : "sel 1"
								}

							}
, 							{
								"box" : 								{
									"bgcolor" : [ 0.692156, 0.657535, 0.617954, 1.0 ],
									"blinkcolor" : [ 0.215478, 0.440638, 0.918583, 1.0 ],
									"id" : "obj-1",
									"maxclass" : "button",
									"numinlets" : 1,
									"numoutlets" : 1,
									"outlettype" : [ "bang" ],
									"outlinecolor" : [ 0.215478, 0.440638, 0.918583, 1.0 ],
									"patching_rect" : [ 90.124161, 127.623383, 13.875839, 13.875839 ],
									"style" : ""
								}

							}
, 							{
								"box" : 								{
									"comment" : "",
									"id" : "obj-30",
									"maxclass" : "inlet",
									"numinlets" : 0,
									"numoutlets" : 1,
									"outlettype" : [ "" ],
									"patching_rect" : [ 50.0, 40.0, 25.0, 25.0 ],
									"style" : ""
								}

							}
, 							{
								"box" : 								{
									"comment" : "",
									"id" : "obj-31",
									"maxclass" : "outlet",
									"numinlets" : 1,
									"numoutlets" : 0,
									"patching_rect" : [ 50.0, 238.623413, 25.0, 25.0 ],
									"style" : ""
								}

							}
, 							{
								"box" : 								{
									"comment" : "",
									"id" : "obj-32",
									"maxclass" : "outlet",
									"numinlets" : 1,
									"numoutlets" : 0,
									"patching_rect" : [ 89.124161, 238.623413, 25.0, 25.0 ],
									"style" : ""
								}

							}
 ],
						"lines" : [ 							{
								"patchline" : 								{
									"destination" : [ "obj-32", 0 ],
									"disabled" : 0,
									"hidden" : 0,
									"source" : [ "obj-1", 0 ]
								}

							}
, 							{
								"patchline" : 								{
									"destination" : [ "obj-81", 0 ],
									"disabled" : 0,
									"hidden" : 0,
									"source" : [ "obj-30", 0 ]
								}

							}
, 							{
								"patchline" : 								{
									"destination" : [ "obj-31", 0 ],
									"disabled" : 0,
									"hidden" : 0,
									"source" : [ "obj-79", 0 ]
								}

							}
, 							{
								"patchline" : 								{
									"destination" : [ "obj-79", 0 ],
									"disabled" : 0,
									"hidden" : 0,
									"source" : [ "obj-80", 0 ]
								}

							}
, 							{
								"patchline" : 								{
									"destination" : [ "obj-1", 0 ],
									"disabled" : 0,
									"hidden" : 0,
									"midpoints" : [ 59.5, 123.311691, 98.0, 123.311691 ],
									"source" : [ "obj-81", 0 ]
								}

							}
, 							{
								"patchline" : 								{
									"destination" : [ "obj-80", 0 ],
									"disabled" : 0,
									"hidden" : 0,
									"source" : [ "obj-81", 0 ]
								}

							}
 ]
					}
,
					"patching_rect" : [ 12.615601, 119.886322, 81.0, 22.0 ],
					"saved_object_attributes" : 					{
						"description" : "",
						"digest" : "",
						"globalpatchername" : "",
						"style" : "",
						"tags" : ""
					}
,
					"style" : "",
					"text" : "p momentary"
				}

			}
, 			{
				"box" : 				{
					"fontname" : "Arial",
					"fontsize" : 12.0,
					"id" : "obj-29",
					"maxclass" : "newobj",
					"numinlets" : 1,
					"numoutlets" : 1,
					"outlettype" : [ "" ],
					"patcher" : 					{
						"fileversion" : 1,
						"appversion" : 						{
							"major" : 7,
							"minor" : 0,
							"revision" : 0,
							"architecture" : "x86",
							"modernui" : 1
						}
,
						"rect" : [ 29.0, 69.0, 144.0, 225.0 ],
						"bglocked" : 0,
						"openinpresentation" : 0,
						"default_fontsize" : 12.0,
						"default_fontface" : 0,
						"default_fontname" : "Arial",
						"gridonopen" : 1,
						"gridsize" : [ 15.0, 15.0 ],
						"gridsnaponopen" : 1,
						"objectsnaponopen" : 1,
						"statusbarvisible" : 2,
						"toolbarvisible" : 1,
						"lefttoolbarpinned" : 0,
						"toptoolbarpinned" : 0,
						"righttoolbarpinned" : 0,
						"bottomtoolbarpinned" : 0,
						"toolbars_unpinned_last_save" : 0,
						"tallnewobj" : 0,
						"boxanimatetime" : 200,
						"enablehscroll" : 1,
						"enablevscroll" : 1,
						"devicewidth" : 0.0,
						"description" : "",
						"digest" : "",
						"tags" : "",
						"style" : "",
						"subpatcher_template" : "",
						"boxes" : [ 							{
								"box" : 								{
									"bgfillcolor_angle" : 270.0,
									"bgfillcolor_autogradient" : 0.79,
									"bgfillcolor_color" : [ 0.290196, 0.309804, 0.301961, 1.0 ],
									"bgfillcolor_color1" : [ 0.74902, 0.705882, 0.662745, 1.0 ],
									"bgfillcolor_color2" : [ 0.685, 0.685, 0.685, 1.0 ],
									"bgfillcolor_proportion" : 0.39,
									"bgfillcolor_type" : "gradient",
									"fontname" : "Trebuchet MS",
									"fontsize" : 14.0,
									"id" : "obj-4",
									"maxclass" : "message",
									"numinlets" : 2,
									"numoutlets" : 1,
									"outlettype" : [ "" ],
									"patching_rect" : [ 9.0, 46.0, 54.748322, 21.0 ],
									"style" : "",
									"text" : "update",
									"textcolor" : [ 0.0, 0.0, 0.0, 1.0 ]
								}

							}
, 							{
								"box" : 								{
									"fontname" : "Arial",
									"fontsize" : 12.0,
									"id" : "obj-32",
									"maxclass" : "newobj",
									"numinlets" : 1,
									"numoutlets" : 1,
									"outlettype" : [ "" ],
									"patching_rect" : [ 29.0, 160.295471, 98.0, 20.0 ],
									"style" : "",
									"text" : "prepend append"
								}

							}
, 							{
								"box" : 								{
									"fontname" : "Arial",
									"fontsize" : 12.0,
									"id" : "obj-31",
									"maxclass" : "newobj",
									"numinlets" : 1,
									"numoutlets" : 1,
									"outlettype" : [ "clear" ],
									"patching_rect" : [ 56.0, 134.327026, 43.0, 20.0 ],
									"style" : "",
									"text" : "t clear"
								}

							}
, 							{
								"box" : 								{
									"fontname" : "Arial",
									"fontsize" : 12.0,
									"id" : "obj-30",
									"maxclass" : "newobj",
									"numinlets" : 1,
									"numoutlets" : 1,
									"outlettype" : [ "" ],
									"patching_rect" : [ 29.0, 134.327026, 27.0, 20.0 ],
									"style" : "",
									"text" : "iter"
								}

							}
, 							{
								"box" : 								{
									"fontname" : "Arial",
									"fontsize" : 12.0,
									"id" : "obj-29",
									"maxclass" : "newobj",
									"numinlets" : 2,
									"numoutlets" : 2,
									"outlettype" : [ "", "" ],
									"patching_rect" : [ 29.0, 109.200684, 62.0, 20.0 ],
									"style" : "",
									"text" : "route port"
								}

							}
, 							{
								"box" : 								{
									"fontname" : "Arial",
									"fontsize" : 12.0,
									"id" : "obj-7",
									"maxclass" : "newobj",
									"numinlets" : 1,
									"numoutlets" : 2,
									"outlettype" : [ "int", "" ],
									"patching_rect" : [ 9.0, 89.200684, 39.0, 20.0 ],
									"style" : "",
									"text" : "serial"
								}

							}
, 							{
								"box" : 								{
									"fontname" : "Arial",
									"fontsize" : 12.0,
									"id" : "obj-8",
									"maxclass" : "newobj",
									"numinlets" : 1,
									"numoutlets" : 1,
									"outlettype" : [ "print" ],
									"patching_rect" : [ 9.0, 68.0, 41.0, 20.0 ],
									"style" : "",
									"text" : "t print"
								}

							}
, 							{
								"box" : 								{
									"comment" : "",
									"id" : "obj-23",
									"maxclass" : "inlet",
									"numinlets" : 0,
									"numoutlets" : 1,
									"outlettype" : [ "bang" ],
									"patching_rect" : [ 9.0, 6.0, 25.0, 25.0 ],
									"style" : ""
								}

							}
, 							{
								"box" : 								{
									"comment" : "",
									"id" : "obj-26",
									"maxclass" : "outlet",
									"numinlets" : 1,
									"numoutlets" : 0,
									"patching_rect" : [ 29.0, 195.295471, 25.0, 25.0 ],
									"style" : ""
								}

							}
 ],
						"lines" : [ 							{
								"patchline" : 								{
									"destination" : [ "obj-4", 0 ],
									"disabled" : 0,
									"hidden" : 0,
									"source" : [ "obj-23", 0 ]
								}

							}
, 							{
								"patchline" : 								{
									"destination" : [ "obj-30", 0 ],
									"disabled" : 0,
									"hidden" : 0,
									"source" : [ "obj-29", 0 ]
								}

							}
, 							{
								"patchline" : 								{
									"destination" : [ "obj-31", 0 ],
									"disabled" : 0,
									"hidden" : 0,
									"midpoints" : [ 38.5, 130.857178, 65.5, 130.857178 ],
									"source" : [ "obj-29", 0 ]
								}

							}
, 							{
								"patchline" : 								{
									"destination" : [ "obj-32", 0 ],
									"disabled" : 0,
									"hidden" : 0,
									"source" : [ "obj-30", 0 ]
								}

							}
, 							{
								"patchline" : 								{
									"destination" : [ "obj-26", 0 ],
									"disabled" : 0,
									"hidden" : 0,
									"midpoints" : [ 65.5, 156.0, 15.0, 156.0, 15.0, 192.0, 38.5, 192.0 ],
									"source" : [ "obj-31", 0 ]
								}

							}
, 							{
								"patchline" : 								{
									"destination" : [ "obj-26", 0 ],
									"disabled" : 0,
									"hidden" : 0,
									"midpoints" : [ 38.5, 180.0, 38.5, 180.0 ],
									"source" : [ "obj-32", 0 ]
								}

							}
, 							{
								"patchline" : 								{
									"destination" : [ "obj-8", 0 ],
									"disabled" : 0,
									"hidden" : 0,
									"source" : [ "obj-4", 0 ]
								}

							}
, 							{
								"patchline" : 								{
									"destination" : [ "obj-29", 0 ],
									"disabled" : 0,
									"hidden" : 0,
									"source" : [ "obj-7", 1 ]
								}

							}
, 							{
								"patchline" : 								{
									"destination" : [ "obj-7", 0 ],
									"disabled" : 0,
									"hidden" : 0,
									"source" : [ "obj-8", 0 ]
								}

							}
 ]
					}
,
					"patching_rect" : [ 12.723633, 153.821136, 57.0, 22.0 ],
					"saved_object_attributes" : 					{
						"description" : "",
						"digest" : "",
						"globalpatchername" : "",
						"style" : "",
						"tags" : ""
					}
,
					"style" : "",
					"text" : "p update"
				}

			}
, 			{
				"box" : 				{
					"color" : [ 0.74902, 0.705882, 0.662745, 1.0 ],
					"fontface" : 0,
					"fontname" : "Arial",
					"fontsize" : 13.0,
					"id" : "obj-939",
					"maxclass" : "newobj",
					"numinlets" : 2,
					"numoutlets" : 1,
					"outlettype" : [ "bang" ],
					"patching_rect" : [ 248.585449, 175.076782, 69.0, 23.0 ],
					"style" : "",
					"text" : "qmetro 51"
				}

			}
, 			{
				"box" : 				{
					"color" : [ 0.74902, 0.705882, 0.662745, 1.0 ],
					"fontface" : 0,
					"fontname" : "Arial",
					"fontsize" : 12.0,
					"id" : "obj-43",
					"maxclass" : "newobj",
					"numinlets" : 1,
					"numoutlets" : 1,
					"outlettype" : [ "int" ],
					"patching_rect" : [ 12.723633, 385.519287, 59.0, 22.0 ],
					"style" : "",
					"text" : "unpack 0"
				}

			}
, 			{
				"box" : 				{
					"color" : [ 0.74902, 0.705882, 0.662745, 1.0 ],
					"fontname" : "Arial",
					"fontsize" : 12.0,
					"id" : "obj-44",
					"maxclass" : "newobj",
					"numinlets" : 1,
					"numoutlets" : 1,
					"outlettype" : [ "" ],
					"patching_rect" : [ 12.723633, 362.290192, 156.0, 22.0 ],
					"style" : "",
					"text" : "fromsymbol"
				}

			}
, 			{
				"box" : 				{
					"color" : [ 0.74902, 0.705882, 0.662745, 1.0 ],
					"fontname" : "Arial",
					"fontsize" : 12.0,
					"id" : "obj-51",
					"maxclass" : "newobj",
					"numinlets" : 3,
					"numoutlets" : 1,
					"outlettype" : [ "int" ],
					"patching_rect" : [ 12.723633, 337.337738, 156.0, 22.0 ],
					"style" : "",
					"text" : "itoa"
				}

			}
, 			{
				"box" : 				{
					"color" : [ 0.74902, 0.705882, 0.662745, 1.0 ],
					"fontname" : "Arial",
					"fontsize" : 12.0,
					"id" : "obj-52",
					"maxclass" : "newobj",
					"numinlets" : 2,
					"numoutlets" : 2,
					"outlettype" : [ "", "" ],
					"patching_rect" : [ 12.723633, 313.337738, 156.0, 22.0 ],
					"style" : "",
					"text" : "zl group 1000"
				}

			}
, 			{
				"box" : 				{
					"color" : [ 0.74902, 0.705882, 0.662745, 1.0 ],
					"fontname" : "Arial",
					"fontsize" : 12.0,
					"id" : "obj-53",
					"maxclass" : "newobj",
					"numinlets" : 3,
					"numoutlets" : 3,
					"outlettype" : [ "bang", "bang", "" ],
					"patching_rect" : [ 12.723633, 284.244843, 156.0, 22.0 ],
					"style" : "",
					"text" : "sel 13 10"
				}

			}
, 			{
				"box" : 				{
					"fontname" : "Avenir Book",
					"fontsize" : 24.0,
					"id" : "obj-35",
					"maxclass" : "comment",
					"numinlets" : 1,
					"numoutlets" : 0,
					"patching_rect" : [ 258.415314, 44.728607, 85.0, 35.0 ],
					"presentation" : 1,
					"presentation_rect" : [ 4.513412, 89.040939, 415.397766, 35.0 ],
					"style" : "",
					"text" : "start",
					"textcolor" : [ 0.990094, 0.989905, 0.995022, 1.0 ],
					"textjustification" : 1
				}

			}
, 			{
				"box" : 				{
					"fontname" : "Avenir Book",
					"fontsize" : 24.0,
					"id" : "obj-33",
					"linecount" : 3,
					"maxclass" : "comment",
					"numinlets" : 1,
					"numoutlets" : 0,
					"patching_rect" : [ 18.945465, 10.715332, 97.0, 91.0 ],
					"presentation" : 1,
					"presentation_rect" : [ 96.173813, 3.686386, 232.378082, 35.0 ],
					"style" : "",
					"text" : "update serial ports",
					"textcolor" : [ 1.0, 1.0, 1.0, 1.0 ],
					"textjustification" : 1
				}

			}
, 			{
				"box" : 				{
					"color" : [ 0.74902, 0.705882, 0.662745, 1.0 ],
					"fontname" : "Trebuchet MS",
					"fontsize" : 12.0,
					"id" : "obj-567",
					"maxclass" : "newobj",
					"numinlets" : 1,
					"numoutlets" : 1,
					"outlettype" : [ "" ],
					"patching_rect" : [ 12.723633, 221.076782, 84.0, 22.0 ],
					"style" : "",
					"text" : "prepend port"
				}

			}
, 			{
				"box" : 				{
					"align" : 1,
					"bgfillcolor_angle" : 270.0,
					"bgfillcolor_color" : [ 0.994916, 0.989806, 0.995031, 1.0 ],
					"bgfillcolor_color1" : [ 0.376471, 0.384314, 0.4, 1.0 ],
					"bgfillcolor_color2" : [ 0.290196, 0.309804, 0.301961, 1.0 ],
					"bgfillcolor_proportion" : 0.39,
					"bgfillcolor_type" : "color",
					"fontface" : 0,
					"fontname" : "Avenir Book",
					"fontsize" : 24.0,
					"id" : "obj-1129",
					"items" : [ "usbmodem5d11", ",", "HC-06-DevB", ",", "knops-WirelessiAP", ",", "Bluetooth-Modem", ",", "AdafruitEZ-Link2a86-SPP", ",", "Bluetooth-PDA-Sync", ",", "HC-05-DevB" ],
					"maxclass" : "umenu",
					"numinlets" : 1,
					"numoutlets" : 3,
					"outlettype" : [ "int", "", "" ],
					"parameter_enable" : 1,
					"patching_rect" : [ 12.723633, 175.076782, 234.861816, 37.0 ],
					"pattrmode" : 1,
					"presentation" : 1,
					"presentation_rect" : [ 4.513412, 46.863663, 415.397766, 37.0 ],
					"saved_attribute_attributes" : 					{
						"valueof" : 						{
							"parameter_longname" : "umenu",
							"parameter_shortname" : "umenu",
							"parameter_type" : 3,
							"parameter_invisible" : 1
						}

					}
,
					"style" : "",
					"textcolor" : [ 0.149, 0.149, 0.149, 1.0 ],
					"textjustification" : 1,
					"varname" : "umenu"
				}

			}
, 			{
				"box" : 				{
					"color" : [ 0.74902, 0.705882, 0.662745, 1.0 ],
					"fontface" : 0,
					"fontname" : "Avenir Book",
					"fontsize" : 12.0,
					"id" : "obj-25",
					"maxclass" : "newobj",
					"numinlets" : 1,
					"numoutlets" : 2,
					"outlettype" : [ "int", "" ],
					"patching_rect" : [ 12.723633, 258.311188, 112.0, 23.0 ],
					"style" : "",
					"text" : "serial portA 9600"
				}

			}
, 			{
				"box" : 				{
					"activebgcolor" : [ 0.74902, 0.705882, 0.662745, 1.0 ],
					"activebgoncolor" : [ 0.215478, 0.440638, 0.918583, 1.0 ],
					"background" : 1,
					"bgcolor" : [ 0.811765, 0.768627, 0.721569, 1.0 ],
					"bgoncolor" : [ 0.215478, 0.440638, 0.918583, 1.0 ],
					"bordercolor" : [ 0.0, 0.0, 0.0, 1.0 ],
					"id" : "obj-66",
					"maxclass" : "live.toggle",
					"numinlets" : 1,
					"numoutlets" : 1,
					"outlettype" : [ "" ],
					"parameter_enable" : 1,
					"patching_rect" : [ 248.585449, 10.715332, 104.659729, 107.02655 ],
					"presentation" : 1,
					"presentation_rect" : [ 4.513412, 89.040939, 415.397766, 39.177277 ],
					"rounded" : 10.0,
					"saved_attribute_attributes" : 					{
						"valueof" : 						{
							"parameter_longname" : "live.toggle[1]",
							"parameter_shortname" : "live.toggle",
							"parameter_type" : 2,
							"parameter_mmax" : 1.0,
							"parameter_enum" : [ "off", "on" ]
						}

					}
,
					"varname" : "live.toggle[1]"
				}

			}
, 			{
				"box" : 				{
					"activebgcolor" : [ 0.74902, 0.705882, 0.662745, 1.0 ],
					"activebgoncolor" : [ 0.215478, 0.440638, 0.918583, 1.0 ],
					"background" : 1,
					"bgcolor" : [ 0.811765, 0.768627, 0.721569, 1.0 ],
					"bgoncolor" : [ 0.215478, 0.440638, 0.918583, 1.0 ],
					"bordercolor" : [ 0.0, 0.0, 0.0, 1.0 ],
					"id" : "obj-70",
					"maxclass" : "live.toggle",
					"numinlets" : 1,
					"numoutlets" : 1,
					"outlettype" : [ "" ],
					"parameter_enable" : 1,
					"patching_rect" : [ 12.615601, 10.715332, 104.659729, 107.02655 ],
					"presentation" : 1,
					"presentation_rect" : [ 4.513412, 3.686386, 415.698883, 39.177277 ],
					"rounded" : 10.0,
					"saved_attribute_attributes" : 					{
						"valueof" : 						{
							"parameter_longname" : "live.toggle[3]",
							"parameter_shortname" : "live.toggle",
							"parameter_type" : 2,
							"parameter_mmax" : 1.0,
							"parameter_enum" : [ "off", "on" ]
						}

					}
,
					"varname" : "live.toggle[3]"
				}

			}
, 			{
				"box" : 				{
					"background" : 1,
					"bgcolor" : [ 0.811765, 0.768627, 0.721569, 1.0 ],
					"id" : "obj-110",
					"maxclass" : "multislider",
					"numinlets" : 1,
					"numoutlets" : 2,
					"outlettype" : [ "", "" ],
					"parameter_enable" : 0,
					"patching_rect" : [ 411.906433, 113.203094, 390.62085, 261.296906 ],
					"presentation" : 1,
					"presentation_rect" : [ 4.513412, 131.850922, 415.397827, 82.177277 ],
					"setminmax" : [ 0.0, 1023.0 ],
					"setstyle" : 3,
					"slidercolor" : [ 0.111217, 0.229505, 0.50659, 1.0 ],
					"style" : ""
				}

			}
 ],
		"lines" : [ 			{
				"patchline" : 				{
					"destination" : [ "obj-567", 0 ],
					"disabled" : 0,
					"hidden" : 0,
					"midpoints" : [ 130.154541, 215.694916, 22.223633, 215.694916 ],
					"source" : [ "obj-1129", 1 ]
				}

			}
, 			{
				"patchline" : 				{
					"destination" : [ "obj-53", 0 ],
					"disabled" : 0,
					"hidden" : 0,
					"source" : [ "obj-25", 0 ]
				}

			}
, 			{
				"patchline" : 				{
					"destination" : [ "obj-1129", 0 ],
					"disabled" : 0,
					"hidden" : 0,
					"source" : [ "obj-29", 0 ]
				}

			}
, 			{
				"patchline" : 				{
					"destination" : [ "obj-132", 0 ],
					"disabled" : 0,
					"hidden" : 0,
					"source" : [ "obj-307", 0 ]
				}

			}
, 			{
				"patchline" : 				{
					"destination" : [ "obj-144", 0 ],
					"disabled" : 0,
					"hidden" : 0,
					"source" : [ "obj-307", 1 ]
				}

			}
, 			{
				"patchline" : 				{
					"destination" : [ "obj-145", 0 ],
					"disabled" : 0,
					"hidden" : 0,
					"source" : [ "obj-307", 2 ]
				}

			}
, 			{
				"patchline" : 				{
					"destination" : [ "obj-146", 0 ],
					"disabled" : 0,
					"hidden" : 0,
					"source" : [ "obj-307", 3 ]
				}

			}
, 			{
				"patchline" : 				{
					"destination" : [ "obj-147", 0 ],
					"disabled" : 0,
					"hidden" : 0,
					"source" : [ "obj-307", 4 ]
				}

			}
, 			{
				"patchline" : 				{
					"destination" : [ "obj-148", 0 ],
					"disabled" : 0,
					"hidden" : 0,
					"source" : [ "obj-307", 5 ]
				}

			}
, 			{
				"patchline" : 				{
					"destination" : [ "obj-149", 0 ],
					"disabled" : 0,
					"hidden" : 0,
					"source" : [ "obj-307", 6 ]
				}

			}
, 			{
				"patchline" : 				{
					"destination" : [ "obj-150", 0 ],
					"disabled" : 0,
					"hidden" : 0,
					"source" : [ "obj-307", 7 ]
				}

			}
, 			{
				"patchline" : 				{
					"destination" : [ "obj-151", 0 ],
					"disabled" : 0,
					"hidden" : 0,
					"source" : [ "obj-307", 8 ]
				}

			}
, 			{
				"patchline" : 				{
					"destination" : [ "obj-153", 0 ],
					"disabled" : 0,
					"hidden" : 0,
					"source" : [ "obj-307", 9 ]
				}

			}
, 			{
				"patchline" : 				{
					"destination" : [ "obj-110", 0 ],
					"disabled" : 0,
					"hidden" : 0,
					"source" : [ "obj-309", 0 ]
				}

			}
, 			{
				"patchline" : 				{
					"destination" : [ "obj-29", 0 ],
					"disabled" : 0,
					"hidden" : 0,
					"midpoints" : [ 84.115601, 148.519531, 22.223633, 148.519531 ],
					"source" : [ "obj-40", 1 ]
				}

			}
, 			{
				"patchline" : 				{
					"destination" : [ "obj-70", 0 ],
					"disabled" : 0,
					"hidden" : 0,
					"midpoints" : [ 22.115601, 145.602493, 8.263184, 145.602493, 8.263184, 7.049866, 22.115601, 7.049866 ],
					"source" : [ "obj-40", 0 ]
				}

			}
, 			{
				"patchline" : 				{
					"destination" : [ "obj-307", 0 ],
					"disabled" : 0,
					"hidden" : 0,
					"source" : [ "obj-43", 0 ]
				}

			}
, 			{
				"patchline" : 				{
					"destination" : [ "obj-308", 0 ],
					"disabled" : 0,
					"hidden" : 0,
					"midpoints" : [ 22.223633, 411.0, 1004.5, 411.0 ],
					"source" : [ "obj-43", 0 ]
				}

			}
, 			{
				"patchline" : 				{
					"destination" : [ "obj-43", 0 ],
					"disabled" : 0,
					"hidden" : 0,
					"midpoints" : [ 22.223633, 387.569275, 22.223633, 387.569275 ],
					"source" : [ "obj-44", 0 ]
				}

			}
, 			{
				"patchline" : 				{
					"destination" : [ "obj-44", 0 ],
					"disabled" : 0,
					"hidden" : 0,
					"source" : [ "obj-51", 0 ]
				}

			}
, 			{
				"patchline" : 				{
					"destination" : [ "obj-51", 0 ],
					"disabled" : 0,
					"hidden" : 0,
					"midpoints" : [ 22.223633, 332.82077, 22.223633, 332.82077 ],
					"source" : [ "obj-52", 0 ]
				}

			}
, 			{
				"patchline" : 				{
					"destination" : [ "obj-52", 0 ],
					"disabled" : 0,
					"hidden" : 0,
					"midpoints" : [ 159.223633, 308.914948, 22.223633, 308.914948 ],
					"source" : [ "obj-53", 2 ]
				}

			}
, 			{
				"patchline" : 				{
					"destination" : [ "obj-52", 0 ],
					"disabled" : 0,
					"hidden" : 0,
					"midpoints" : [ 22.223633, 310.244904, 22.223633, 310.244904 ],
					"source" : [ "obj-53", 0 ]
				}

			}
, 			{
				"patchline" : 				{
					"destination" : [ "obj-25", 0 ],
					"disabled" : 0,
					"hidden" : 0,
					"midpoints" : [ 22.223633, 249.193985, 22.223633, 249.193985 ],
					"source" : [ "obj-567", 0 ]
				}

			}
, 			{
				"patchline" : 				{
					"destination" : [ "obj-939", 0 ],
					"disabled" : 0,
					"hidden" : 0,
					"source" : [ "obj-66", 0 ]
				}

			}
, 			{
				"patchline" : 				{
					"destination" : [ "obj-40", 0 ],
					"disabled" : 0,
					"hidden" : 0,
					"midpoints" : [ 22.115601, 118.049866, 22.115601, 118.049866 ],
					"source" : [ "obj-70", 0 ]
				}

			}
, 			{
				"patchline" : 				{
					"destination" : [ "obj-25", 0 ],
					"disabled" : 0,
					"hidden" : 0,
					"midpoints" : [ 258.085449, 248.075562, 22.223633, 248.075562 ],
					"source" : [ "obj-939", 0 ]
				}

			}
 ],
		"parameters" : 		{
			"obj-66" : [ "live.toggle[1]", "live.toggle", 0 ],
			"obj-1129" : [ "umenu", "umenu", 0 ],
			"obj-70" : [ "live.toggle[3]", "live.toggle", 0 ]
		}
,
		"dependency_cache" : [  ],
		"embedsnapshot" : 0,
		"styles" : [ 			{
				"name" : "buttonBlue",
				"default" : 				{
					"bgcolor" : [ 0.317647, 0.654902, 0.976471, 1.0 ]
				}
,
				"parentstyle" : "",
				"multi" : 0
			}
, 			{
				"name" : "buttonPurple",
				"default" : 				{
					"bgcolor" : [ 0.372549, 0.196078, 0.486275, 1.0 ]
				}
,
				"parentstyle" : "",
				"multi" : 0
			}
, 			{
				"name" : "newobjBlue-1",
				"default" : 				{
					"accentcolor" : [ 0.317647, 0.654902, 0.976471, 1.0 ]
				}
,
				"parentstyle" : "",
				"multi" : 0
			}
, 			{
				"name" : "newobjCyan-1",
				"default" : 				{
					"accentcolor" : [ 0.029546, 0.773327, 0.821113, 1.0 ]
				}
,
				"parentstyle" : "",
				"multi" : 0
			}
, 			{
				"name" : "newobjGreen-1",
				"default" : 				{
					"accentcolor" : [ 0.0, 0.533333, 0.168627, 1.0 ]
				}
,
				"parentstyle" : "",
				"multi" : 0
			}
, 			{
				"name" : "newobjMagenta-1",
				"default" : 				{
					"accentcolor" : [ 0.840663, 0.060168, 0.769195, 1.0 ]
				}
,
				"parentstyle" : "",
				"multi" : 0
			}
, 			{
				"name" : "newobjYellow-1",
				"default" : 				{
					"accentcolor" : [ 0.82517, 0.78181, 0.059545, 1.0 ],
					"fontsize" : [ 12.059008 ]
				}
,
				"parentstyle" : "",
				"multi" : 0
			}
 ]
	}

}
